<?xml version="1.0" encoding="iso-8859-1"?>
<!-- Generator: Adobe Illustrator 19.0.0, SVG Export Plug-In . SVG Version: 6.00 Build 0)  -->
<svg version="1.1" id="Capa_1" xmlns="http://www.w3.org/2000/svg" xmlns:xlink="http://www.w3.org/1999/xlink" x="0px" y="0px"
	 viewBox="0 0 512.001 512.001" style="enable-background:new 0 0 512.001 512.001;" xml:space="preserve">
<g>
	<g>
		<path d="M511.343,498.424l-63.886-167.383c-0.502-1.315-1.276-2.51-2.271-3.505L129.864,12.214
			c-16.273-16.272-42.749-16.271-59.022,0L12.224,70.832C4.341,78.715,0,89.195,0,100.343c0,11.147,4.341,21.628,12.224,29.511
			l315.322,315.322c0.996,0.995,2.19,1.77,3.506,2.271l167.383,63.885c1.159,0.442,2.366,0.658,3.563,0.658
			c2.605,0,5.163-1.019,7.073-2.929C511.859,506.273,512.749,502.108,511.343,498.424z M72.005,161.35l-45.64-45.639
			C22.261,111.607,20,106.148,20,100.343c0-5.806,2.261-11.264,6.366-15.369l58.618-58.618c8.473-8.474,22.263-8.476,30.737,0
			l45.546,45.546l-88.262,88.262C72.632,160.537,72.306,160.937,72.005,161.35z M108.752,198.098l-22.791-22.791
			c0.413-0.302,0.813-0.627,1.187-1l88.262-88.262l22.604,22.604l-88.262,88.262C109.38,197.285,109.054,197.685,108.752,198.098z
			 M122.709,212.055c0.413-0.302,0.813-0.627,1.187-1l88.262-88.262l211.814,211.814l-89.356,89.356L122.709,212.055z
			 M352.6,434.265l81.675-81.675l28.886,75.684l-34.877,34.877L352.6,434.265z M448.755,470.965l22.219-22.219l13.715,35.934
			L448.755,470.965z"/>
	</g>
</g>
<g>
	<g>
		<path d="M305.023,258.102l-73.388-73.388c-3.905-3.905-10.237-3.905-14.143,0c-3.905,3.905-3.905,10.237,0,14.142l73.389,73.389
			c1.953,1.953,4.512,2.929,7.071,2.929c2.559,0,5.119-0.977,7.071-2.929C308.928,268.34,308.928,262.008,305.023,258.102z"/>
	</g>
</g>
<g>
	<g>
		<path d="M345.224,298.304l-0.156-0.156c-3.911-3.899-10.244-3.89-14.142,0.022c-3.899,3.912-3.89,10.243,0.022,14.142l0.156,0.156
			c1.952,1.945,4.505,2.918,7.06,2.918c2.564,0,5.129-0.98,7.082-2.94C349.145,308.534,349.136,302.203,345.224,298.304z"/>
	</g>
</g>
<g>
	<g>
		<path d="M357,491.99H114.77c-5.522,0-10,4.477-10,10s4.478,10,10,10H357c5.522,0,10-4.477,10-10S362.522,491.99,357,491.99z"/>
	</g>
</g>
<g>
	<g>
		<path d="M407.779,494.92c-1.869-1.86-4.439-2.93-7.079-2.93c-2.62,0-5.2,1.07-7.07,2.93c-1.86,1.86-2.92,4.44-2.92,7.07
			c0,2.64,1.06,5.21,2.92,7.07c1.87,1.86,4.439,2.93,7.07,2.93c2.64,0,5.21-1.07,7.079-2.93c1.86-1.86,2.931-4.44,2.931-7.07
			S409.64,496.78,407.779,494.92z"/>
	</g>
</g>
<g>
</g>
<g>
</g>
<g>
</g>
<g>
</g>
<g>
</g>
<g>
</g>
<g>
</g>
<g>
</g>
<g>
</g>
<g>
</g>
<g>
</g>
<g>
</g>
<g>
</g>
<g>
</g>
<g>
</g>
</svg>
