<svg xmlns="http://www.w3.org/2000/svg" height="698pt" version="1.1" viewBox="-3 0 698 698.75061" width="698pt">
<g id="surface1">
<path d="M 0.375 0 L 499.480469 0 L 499.480469 174.683594 L 472.464844 174.683594 L 456.824219 88.652344 C 451.421875 58.992188 425.589844 37.433594 395.445312 37.433594 L 312.316406 37.433594 C 305.425781 37.433594 299.839844 43.019531 299.839844 49.914062 L 299.839844 596.90625 C 299.84375 618.386719 313.589844 637.457031 333.964844 644.25 L 412.136719 670.316406 L 412.136719 698.75 L 87.71875 698.75 L 87.71875 670.316406 L 165.890625 644.25 C 186.265625 637.457031 200.015625 618.386719 200.019531 596.90625 L 200.019531 49.914062 C 200.019531 43.019531 194.433594 37.433594 187.539062 37.433594 L 104.410156 37.433594 C 74.261719 37.4375 48.425781 59 43.035156 88.667969 L 27.390625 174.683594 L 0.375 174.683594 Z M 0.375 0 " style=" stroke:none;fill-rule:nonzero;fill:rgb(0%,0%,0%);fill-opacity:1;" />
<path d="M 611.78125 124.777344 L 582.058594 124.777344 L 636.734375 15.417969 L 691.414062 124.777344 L 661.691406 124.777344 C 654.800781 124.777344 649.214844 130.363281 649.214844 137.253906 L 649.214844 561.492188 C 649.214844 568.386719 654.800781 573.972656 661.691406 573.972656 L 691.414062 573.972656 L 636.734375 683.332031 L 582.058594 573.972656 L 611.78125 573.972656 C 618.671875 573.972656 624.261719 568.386719 624.261719 561.492188 L 624.261719 137.253906 C 624.261719 130.363281 618.671875 124.777344 611.78125 124.777344 Z M 611.78125 124.777344 " style=" stroke:none;fill-rule:nonzero;fill:rgb(0%,0%,0%);fill-opacity:1;" />
</g>
</svg>