<svg height="511pt" viewBox="-172 0 511 511.99767" width="511pt" xmlns="http://www.w3.org/2000/svg"><path d="m165.464844 19.398438c-4.675782-15.855469-32.203125-17.609376-45.433594-18.453126l-1.449219-.09375c-33.078125-2.171874-65.472656.171876-98.515625 2.988282-3.417968.292968-7.671875.65625-11.246094 3.15625-9.824218 6.871094-8.65625 20.3125-7.71875 31.109375.238282 2.738281.464844 5.324219.46875 7.457031l.613282 290.804688c.015625 7.039062.035156 16.679687 5.34375 24 2.507812 3.453124 5.730468 5.890624 9.398437 7.640624v.007813c.273438 4.949219.378907 9.285156.476563 13.476563.101562 4.246093.203125 8.636718.488281 13.699218.179687 3.269532.433594 7.75 3.070313 11.34375 2.566406 3.488282 6.433593 4.988282 9.851562 6.308594.671875.261719 1.34375.523438 2 .796875 15 6.285156 23.535156 25.296875 18.265625 40.683594-.375 1.097656-.1875 2.3125.503906 3.246093.667969.902344 1.722657 1.433594 2.839844 1.433594.039063 0 .078125 0 .113281-.003906l8.140625-.261719-.042969 26.972657c-.003906 2.429687-.011718 5.753906 1.652344 8.691406 1.847656 3.265625 5.117188 4.984375 7.507813 6.238281l20.847656 10.953125c.515625.269531 1.078125.402344 1.644531.402344.59375 0 1.191406-.148438 1.726563-.449219 1.042969-.585937 1.722656-1.660156 1.800781-2.855469l3.191406-49.480468c.039063-.609376-.09375-1.1875-.335937-1.703126l6.449219-.210937c1.054687-.035156 2.039062-.539063 2.683593-1.378906.644531-.835938.882813-1.917969.644531-2.949219-2.160156-9.328125-.273437-19.652344 5.039063-27.617188 5.316406-7.964843 14.125-13.667968 23.570313-15.257812 1.652343-.277344 2.882812-1.675781 2.945312-3.351562l1.289062-34.425782c.011719-.363281-.042968-.710937-.136718-1.046875 7.363281-1.664062 14-4.886719 18.246094-11.203125 4.84375-7.203125 4.839843-16.105468 4.835937-23.253906l-.15625-284.980469c0-2.761719.195313-5.835937.402344-9.089843.496093-7.648438 1.054687-16.320313-1.015625-23.34375zm-156.816406 30.566406c.261718.0625.53125.105468.808593.105468.207031 0 .414063-.019531.625-.058593 50.945313-9.09375 98.34375-9.421875 148.984375-1.046875-.03125.976562-.058594 1.9375-.058594 2.871094l.152344 276.0625c-49.769531 8.980468-100.1875 8.894531-149.925781-.246094zm106.132812-13.234375c-6.503906-.417969-12.988281-.691407-19.464844-.808594l-.804687-28.832031c6.710937.046875 13.429687.242187 20.164062.621094zm-23.503906-.839844c-6.066406-.054687-12.136719.023437-18.210938.234375l-1.195312-28.664062c6.199218-.226563 12.398437-.367188 18.601562-.382813zm-22.25.390625c-5.679688.25-11.375.621094-17.089844 1.101562l-2.332031-28.742187c6.085937-.40625 12.160156-.75 18.226562-1.011719zm-21.113282 1.4375c-6.171874.574219-12.375 1.289062-18.617187 2.132812l-2.113281-29.511718c6.152344-.511719 12.277344-.992188 18.394531-1.425782zm110.769532-16.320312c1.683594 5.710937 1.242187 13.195312.773437 20.472656-5.890625-.964844-11.742187-1.828125-17.558593-2.558594l1.394531-28.1875c7.453125 1.910156 13.84375 5.035156 15.390625 10.273438zm-19.390625-11.171876-1.414063 28.617188c-6.382812-.746094-12.730468-1.351562-19.054687-1.816406l-.109375-29.082032.867187.054688c4.78125.304688 12.421875.792969 19.710938 2.226562zm-126.421875 2.5625c2.019531-1.410156 5.089844-1.671874 7.796875-1.902343.832031-.070313 1.660156-.140625 2.492187-.210938l2.128906 29.746094c-5.449218.785156-10.925781 1.648437-16.449218 2.632813-.097656.019531-.183594.054687-.273438.078124-.089844-1.777343-.25-3.667968-.421875-5.640624-.820312-9.453126-1.75-20.171876 4.726563-24.703126zm81.078125 445.96875-2.839844 44.046876-16.027344-8.417969c-2.164062-1.136719-3.878906-2.113281-4.644531-3.464844-.742188-1.308594-.738281-3.375-.734375-5.199219l.046875-27.210937 24.445312-.792969c-.128906.328125-.222656.671875-.246093 1.039062zm41.09375-55.046874c-10.238281 2.492187-19.59375 8.96875-25.433594 17.71875-5.589844 8.375-8.015625 18.921874-6.789063 28.9375l-43.761718 1.417968c3.476562-17.894531-6.492188-37.53125-23.515625-44.664062-.710938-.296875-1.441407-.582032-2.175781-.867188-2.757813-1.066406-5.363282-2.078125-6.707032-3.902344-1.289062-1.761718-1.53125-4.351562-1.710937-7.554687-.277344-4.949219-.378907-9.285156-.476563-13.472656-.082031-3.417969-.167968-6.9375-.34375-10.816407 4.941406 1.195313 10.304688 1.648438 15.671875 1.859376 17.664063.699218 35.484375 1.050781 53.28125 1.050781 11.3125 0 22.617188-.140625 33.859375-.425781 3.058594-.078126 6.183594-.242188 9.273438-.582032zm20.492187-47.585938c-5.46875 8.136719-17.613281 9.519531-28.773437 9.800781-28.769531.726563-57.9375.515625-86.683594-.617187-10.820313-.429688-21.558594-1.828125-26.824219-9.089844-3.671875-5.058594-3.984375-11.988281-4-19.863281l-.003906-1.5c25.089844 4.53125 50.347656 6.804687 75.609375 6.804687 24.820313 0 49.640625-2.214844 74.308594-6.589844v1.746094c.003906 7.601563-.265625 14.304688-3.632813 19.308594zm0 0"/><path d="m118.207031 281.808594c8.925781-11.738282 13.304688-25.898438 16.121094-36.917969 7.828125-30.609375 9.683594-63.332031 5.363281-94.628906-1.488281-10.777344-4.359375-26.742188-12.109375-40.886719-4.074219-7.441406-9.507812-14.484375-15.980469-20.003906-8.113281-6.917969-16.644531-10.015625-24.636718-8.957032-17.199219 2.273438-34.242188 13.632813-45.589844 30.390626-9.558594 14.117187-15.5625 32.0625-18.359375 54.859374-3.113281 25.410157-1.929687 50.980469 3.523437 75.996094 2.417969 11.101563 6.800782 27.363282 16.863282 40.335938 9.871094 12.71875 23.820312 20.164062 37.613281 20.164062.566406 0 1.128906-.011718 1.695313-.039062 12.992187-.574219 26.261718-8.167969 35.496093-20.3125zm14.121094-65.691406c-2.328125 7.675781-7.589844 14.476562-14.429687 18.660156-7.488282 4.582031-16.628907 6.078125-25.464844 7.527344l-2.34375.386718c-9.585938 1.601563-20.488282 3.890625-28.578125 10.882813-5.320313 4.601562-8.988281 10.9375-10.328125 17.84375-.535156 2.761719-.671875 5.574219-.460938 8.359375-.214844-.25-.417968-.515625-.632812-.769532-2.054688-7.761718.582031-17.179687 6.972656-24.460937 6.628906-7.554687 16.085938-12.238281 24.460938-15.820313 2.039062-.871093 4.097656-1.71875 6.152343-2.5625 7.261719-2.976562 14.773438-6.058593 21.523438-10.453124 11.859375-7.710938 20.734375-19.402344 25.503906-32.578126-.289063 7.414063-.910156 14.816407-1.871094 22.164063-.226562.222656-.40625.496094-.503906.820313zm-102.566406-47.160157c2.425781 1.179688 5.253906 1.8125 8.28125 1.8125.425781 0 .859375-.015625 1.292969-.039062 4.339843-.246094 8.433593-1.65625 11.867187-3 14.761719-5.789063 24.917969-14.359375 29.367187-24.792969 1.917969-4.492188 2.777344-9.285156 3.609376-13.921875.730468-4.0625 1.417968-7.902344 2.757812-11.574219 3.597656-9.839844 12.421875-17.722656 22.515625-20.640625 1.195313 1.128907 2.394531 2.386719 3.589844 3.773438-5.664063 3.390625-10.15625 9.277343-13.367188 17.523437-1.457031 3.738282-2.546875 7.621094-3.605469 11.375-.925781 3.289063-1.882812 6.6875-3.066406 9.910156-5.25 14.292969-15.839844 26.832032-29.050781 34.402344-6.699219 3.839844-13.167969 5.898438-19.226563 6.117188-5.875.210937-11.40625-1.382813-15.601562-4.425782.175781-2.175781.394531-4.347656.636719-6.519531zm17.46875-54.1875c10.230469-15.113281 25.433593-25.335937 40.660156-27.347656.535156-.070313 1.113281-.109375 1.742187-.109375 4.039063 0 9.902344 1.601562 16.195313 6.398438-10.289063 3.734374-18.890625 11.960937-22.683594 22.339843-1.460937 4-2.210937 8.195313-2.941406 12.25-.828125 4.617188-1.609375 8.976563-3.347656 13.050781-5.070313 11.890626-17.550781 18.863282-27.125 22.617188-3.136719 1.226562-6.851563 2.511719-10.625 2.730469-3.394531.191406-6.476563-.542969-8.820313-2.066407 2.75-20.75 8.292969-37.085937 16.945313-49.863281zm-13.785157 125.390625c-4.3125-19.792968-5.867187-39.945312-4.648437-60.078125 4.285156 2.511719 9.441406 3.878907 14.890625 3.878907.394531 0 .789062-.007813 1.1875-.019532 6.71875-.242187 13.8125-2.480468 21.085938-6.648437 14.023437-8.039063 25.261718-21.347657 30.832031-36.519531 1.238281-3.367188 2.21875-6.84375 3.164062-10.203126 1.03125-3.664062 2.097657-7.449218 3.484375-11.007812 2.96875-7.632812 7.0625-12.941406 12.167969-15.800781 1.964844 2.609375 3.902344 5.589843 5.773437 9.007812 5.472657 9.988281 9.0625 22.210938 11.308594 38.460938.949219 6.898437 1.578125 13.871093 1.914063 20.875-.394531 19.882812-10.820313 39.300781-27.609375 50.21875-6.433594 4.1875-13.761719 7.195312-20.851563 10.101562-2.078125.855469-4.152343 1.707031-6.210937 2.585938-8.792969 3.761719-18.746094 8.707031-25.90625 16.867187-5.316406 6.058594-8.324219 13.488282-8.625 20.582032-6.707032-10.851563-10.003906-23.347657-11.957032-32.300782zm48.949219 54.902344c-9.148437.402344-18.789062-3.445312-26.726562-10.347656-1.117188-4.0625-1.324219-8.363282-.515625-12.527344 1.164062-6.019531 4.363281-11.542969 9-15.554688 7.296875-6.308593 17.558594-8.445312 26.601562-9.957031l2.332032-.382812c9.222656-1.511719 18.757812-3.074219 26.921874-8.066407 4.203126-2.570312 7.871094-6.027343 10.761719-10.042968-.941406 5.03125-2.027343 10.023437-3.289062 14.957031-2.652344 10.375-6.746094 23.660156-14.902344 34.390625-7.976563 10.492188-19.261719 17.046875-30.183594 17.53125zm0 0"/></svg>