<?xml version="1.0" encoding="iso-8859-1"?>
<!-- Generator: Adobe Illustrator 19.0.0, SVG Export Plug-In . SVG Version: 6.00 Build 0)  -->
<svg version="1.1" id="Capa_1" xmlns="http://www.w3.org/2000/svg" xmlns:xlink="http://www.w3.org/1999/xlink" x="0px" y="0px"
	 viewBox="0 0 512 512" style="enable-background:new 0 0 512 512;" xml:space="preserve">
<g>
	<g>
		<path d="M256.052,61.773L145.959,16.169c-3.675-1.521-7.805-1.521-11.48,0c-3.675,1.522-6.596,4.442-8.118,8.118L81.627,132.285
			L3.454,226.539c-3.155,3.805-4.233,8.919-2.884,13.673l42.436,149.457c1.252,4.411,4.453,8.007,8.689,9.762
			c1.843,0.764,3.794,1.142,5.74,1.142c2.526,0,5.044-0.638,7.307-1.899L200.43,323c4.316-2.407,7.17-6.786,7.629-11.707
			l11.376-121.926L264.17,81.372C267.34,73.719,263.706,64.944,256.052,61.773z M178.921,300.644l-91.12,50.817l38.828-93.74
			c3.17-7.653-0.464-16.429-8.118-19.599c-7.653-3.17-16.429,0.464-19.599,8.118l-38.829,93.742L31.586,239.613L99.1,158.212
			l44.823,18.565l44.823,18.566L178.921,300.644z M196.591,166.12l-58.626-24.282l-23.75-9.837l34.121-82.375l82.376,34.122
			L196.591,166.12z"/>
	</g>
</g>
<g>
	<g>
		<path d="M497,274.172H336.334c-34.849,0-63.201,28.352-63.201,63.201c0,34.848,28.352,63.199,63.201,63.199
			c18.306,0,33.199,14.893,33.199,33.199c0,18.308-14.893,33.201-33.199,33.201H15c-8.284,0-15,6.716-15,15s6.716,15,15,15h321.334
			c34.848,0,63.199-28.352,63.199-63.201c0-34.848-28.351-63.199-63.199-63.199c-18.307,0-33.201-14.894-33.201-33.199
			c0-18.308,14.894-33.201,33.201-33.201H497c8.284,0,15-6.716,15-15S505.284,274.172,497,274.172z"/>
	</g>
</g>
<g>
</g>
<g>
</g>
<g>
</g>
<g>
</g>
<g>
</g>
<g>
</g>
<g>
</g>
<g>
</g>
<g>
</g>
<g>
</g>
<g>
</g>
<g>
</g>
<g>
</g>
<g>
</g>
<g>
</g>
</svg>
