<?xml version="1.0"?>
<svg xmlns="http://www.w3.org/2000/svg" height="512px" viewBox="0 0 512 512.001" width="512px" class=""><g><path d="m361.0625 194.589844h27.714844c4.148437 0 7.507812-3.363282 7.507812-7.507813v-78.777343c0-4.148438-3.359375-7.507813-7.507812-7.507813h-264.957032c-4.148437 0-7.507812 3.359375-7.507812 7.507813v45.863281c0 .121093.003906.242187.007812.363281v32.550781c0 4.144531 3.363282 7.503907 7.507813 7.503907h27.714844c4.148437 0 7.507812-3.359376 7.507812-7.503907v-25.40625h66.808594v207.304688h-31.152344c-4.144531 0-7.507812 3.363281-7.507812 7.507812v27.714844c0 4.144531 3.363281 7.507813 7.507812 7.507813h123.183594c4.148437 0 7.507813-3.363282 7.507813-7.507813v-27.714844c0-4.144531-3.359376-7.507812-7.507813-7.507812h-31.152344v-207.304688h66.820313v25.40625c-.003906 4.144531 3.359375 7.507813 7.503906 7.507813zm-81.832031-47.929688c-4.148438 0-7.507813 3.363282-7.507813 7.507813v222.320312c0 4.148438 3.359375 7.507813 7.507813 7.507813h31.152343v12.699218h-108.167968v-12.699218h31.152344c4.148437 0 7.507812-3.359375 7.507812-7.507813v-222.320312c0-4.144531-3.359375-7.507813-7.507812-7.507813h-81.824219c-4.148438 0-7.507813 3.363282-7.507813 7.507813v25.40625h-12.699218v-25.40625c0-.125-.003907-.246094-.007813-.367188v-37.988281h249.941406v63.761719h-12.699219v-25.40625c0-4.144531-3.359374-7.507813-7.507812-7.507813zm0 0" data-original="#000000" class="active-path" fill="#000000"/><path d="m484.203125 442.476562v-246.707031c0-4.148437-3.359375-7.507812-7.507813-7.507812-4.148437 0-7.507812 3.359375-7.507812 7.507812v246.285157c-13.546875 2.542968-24.382812 12.851562-27.699219 26.117187h-371.976562c-3.21875-12.878906-13.527344-22.96875-26.523438-25.875v-372.59375c13.613281-3.042969 24.277344-13.972656 26.929688-27.730469h371.164062c2.730469 14.148438 13.933594 25.308594 28.105469 27.972656v97.414063c0 4.148437 3.363281 7.507813 7.507812 7.507813 4.148438 0 7.507813-3.359376 7.507813-7.507813v-97.835937c15.367187-3.808594 26.796875-17.710938 26.796875-34.242188 0-19.453125-15.828125-35.28125-35.28125-35.28125-16.585938 0-30.53125 11.507812-34.28125 26.957031h-371.875c-3.75-15.449219-17.695312-26.957031-34.28125-26.957031-19.453125 0-35.28125 15.828125-35.28125 35.28125 0 16.949219 12.015625 31.140625 27.972656 34.515625v372.40625c-15.957031 3.375-27.972656 17.566406-27.972656 34.515625 0 19.453125 15.828125 35.28125 35.28125 35.28125 17.246094 0 31.628906-12.4375 34.675781-28.8125h371.085938c3.046875 16.375 17.429687 28.8125 34.675781 28.8125 19.453125 0 35.28125-15.828125 35.28125-35.28125 0-16.527344-11.429688-30.433594-26.796875-34.242188zm-8.484375-427.460937c11.175781 0 20.265625 9.089844 20.265625 20.265625s-9.089844 20.269531-20.265625 20.269531-20.265625-9.09375-20.265625-20.269531 9.089844-20.265625 20.265625-20.265625zm-460.703125 20.265625c0-11.175781 9.089844-20.265625 20.265625-20.265625s20.265625 9.089844 20.265625 20.265625-9.089844 20.269531-20.265625 20.269531-20.265625-9.09375-20.265625-20.269531zm20.265625 461.703125c-11.175781 0-20.265625-9.089844-20.265625-20.265625s9.089844-20.265625 20.265625-20.265625 20.265625 9.089844 20.265625 20.265625-9.089844 20.265625-20.265625 20.265625zm440.4375 0c-11.175781 0-20.265625-9.089844-20.265625-20.265625s9.089844-20.265625 20.265625-20.265625 20.265625 9.089844 20.265625 20.265625-9.089844 20.265625-20.265625 20.265625zm0 0" data-original="#000000" class="active-path" fill="#000000"/></g> </svg>
